<mxfile host="" modified="2020-05-22T21:10:22.741Z" agent="5.0 (Windows NT 10.0; Win64; x64) AppleWebKit/537.36 (KHTML, like Gecko) Code/1.45.1 Chrome/78.0.3904.130 Electron/7.2.4 Safari/537.36" etag="rW8RQvW-0UZ4A9pENDaE" version="13.1.3">
    <diagram id="6hGFLwfOUW9BJ-s0fimq" name="Cache">
        <mxGraphModel dx="3685" dy="2140" grid="1" gridSize="10" guides="1" tooltips="1" connect="1" arrows="1" fold="1" page="1" pageScale="1" pageWidth="1169" pageHeight="827" background="#ffffff" math="0" shadow="0">
            <root>
                <mxCell id="0"/>
                <mxCell id="1" parent="0"/>
                <mxCell id="193" style="edgeStyle=none;orthogonalLoop=1;jettySize=auto;html=1;exitX=0;exitY=0.25;exitDx=0;exitDy=0;endSize=8;strokeColor=#000000;strokeWidth=10;fontSize=40;fontColor=#000000;startArrow=classic;startFill=1;startSize=8;targetPerimeterSpacing=20;" edge="1" parent="1" source="2" target="190">
                    <mxGeometry relative="1" as="geometry"/>
                </mxCell>
                <mxCell id="199" style="edgeStyle=none;orthogonalLoop=1;jettySize=auto;html=1;exitX=0;exitY=0.75;exitDx=0;exitDy=0;startArrow=classic;startFill=1;startSize=8;endSize=8;targetPerimeterSpacing=20;strokeColor=#000000;strokeWidth=10;fontSize=40;fontColor=#000000;" edge="1" parent="1" source="2" target="198">
                    <mxGeometry relative="1" as="geometry"/>
                </mxCell>
                <mxCell id="2" value="&lt;font color=&quot;#000000&quot; style=&quot;font-size: 40px&quot;&gt;Cache&lt;/font&gt;" style="rounded=0;whiteSpace=wrap;html=1;strokeColor=#36393d;fillColor=#f9f7ed;strokeWidth=5;verticalAlign=top;align=left;spacingLeft=10;" vertex="1" parent="1">
                    <mxGeometry x="-580" y="60" width="2210" height="1200" as="geometry"/>
                </mxCell>
                <mxCell id="56" value="" style="group;" vertex="1" connectable="0" parent="1">
                    <mxGeometry x="310" y="90" width="1140" height="270" as="geometry"/>
                </mxCell>
                <mxCell id="7" value="&lt;font style=&quot;font-size: 30px&quot;&gt;Set 3&lt;/font&gt;" style="rounded=0;html=1;strokeColor=#6c8ebf;strokeWidth=3;fillColor=#dae8fc;labelPosition=center;verticalLabelPosition=middle;align=left;verticalAlign=top;spacing=0;whiteSpace=wrap;spacingLeft=10;spacingTop=0;fontColor=#000000;" vertex="1" parent="56">
                    <mxGeometry width="1140" height="270" as="geometry"/>
                </mxCell>
                <mxCell id="44" value="&lt;font color=&quot;#000000&quot;&gt;Replace&lt;br&gt;&lt;div&gt;&lt;span&gt;Controller&lt;/span&gt;&lt;/div&gt;&lt;/font&gt;" style="rounded=1;whiteSpace=wrap;html=1;strokeColor=#d6b656;strokeWidth=3;fillColor=#fff2cc;fontSize=30;align=center;glass=0;comic=0;shadow=0;" vertex="1" parent="56">
                    <mxGeometry x="120" y="20" width="180" height="230" as="geometry"/>
                </mxCell>
                <mxCell id="48" value="" style="group;strokeColor=none;strokeWidth=3;" vertex="1" connectable="0" parent="1">
                    <mxGeometry x="310" y="90" width="1140" height="270" as="geometry"/>
                </mxCell>
                <mxCell id="23" value="" style="group;strokeColor=#000000;strokeWidth=3;" vertex="1" connectable="0" parent="1">
                    <mxGeometry x="680" y="110" width="730" height="50" as="geometry"/>
                </mxCell>
                <mxCell id="24" value="" style="group;strokeWidth=3;strokeColor=#000000;" vertex="1" connectable="0" parent="1">
                    <mxGeometry x="680" y="170" width="730" height="50" as="geometry"/>
                </mxCell>
                <mxCell id="30" value="" style="group;strokeColor=#000000;strokeWidth=3;" vertex="1" connectable="0" parent="1">
                    <mxGeometry x="680" y="230" width="730" height="50" as="geometry"/>
                </mxCell>
                <mxCell id="46" value="" style="group;strokeColor=#000000;strokeWidth=3;" vertex="1" connectable="0" parent="1">
                    <mxGeometry x="680" y="290" width="730" height="50" as="geometry"/>
                </mxCell>
                <mxCell id="50" value="" style="group;strokeColor=none;strokeWidth=3;" vertex="1" connectable="0" parent="1">
                    <mxGeometry x="680" y="110" width="730" height="50" as="geometry"/>
                </mxCell>
                <mxCell id="9" value="Line 3" style="rounded=0;whiteSpace=wrap;html=1;strokeColor=none;strokeWidth=3;fillColor=#cdeb8b;fontSize=30;labelPosition=center;verticalLabelPosition=middle;align=left;verticalAlign=middle;spacingLeft=10;fontColor=#000000;" vertex="1" parent="50">
                    <mxGeometry width="730" height="50" as="geometry"/>
                </mxCell>
                <mxCell id="10" value="" style="rounded=0;whiteSpace=wrap;html=1;strokeWidth=1;fillColor=#f9f7ed;fontSize=30;align=left;strokeColor=#36393d;" vertex="1" parent="50">
                    <mxGeometry x="160" y="10" width="100" height="30" as="geometry"/>
                </mxCell>
                <mxCell id="11" value="" style="rounded=0;whiteSpace=wrap;html=1;strokeWidth=1;fillColor=#f9f7ed;fontSize=30;align=left;strokeColor=#36393d;" vertex="1" parent="50">
                    <mxGeometry x="300" y="10" width="100" height="30" as="geometry"/>
                </mxCell>
                <mxCell id="13" value="" style="rounded=0;whiteSpace=wrap;html=1;strokeWidth=1;fillColor=#f9f7ed;fontSize=30;align=left;strokeColor=#36393d;" vertex="1" parent="50">
                    <mxGeometry x="440" y="10" width="100" height="30" as="geometry"/>
                </mxCell>
                <mxCell id="15" value="" style="rounded=0;whiteSpace=wrap;html=1;strokeWidth=1;fillColor=#f9f7ed;fontSize=30;align=left;strokeColor=#36393d;" vertex="1" parent="50">
                    <mxGeometry x="580" y="10" width="100" height="30" as="geometry"/>
                </mxCell>
                <mxCell id="51" value="" style="group;fontColor=#000000;" vertex="1" connectable="0" parent="1">
                    <mxGeometry x="680" y="170" width="730" height="50" as="geometry"/>
                </mxCell>
                <mxCell id="25" value="Line 2" style="rounded=0;whiteSpace=wrap;html=1;strokeColor=none;strokeWidth=3;fillColor=#cdeb8b;fontSize=30;labelPosition=center;verticalLabelPosition=middle;align=left;verticalAlign=middle;spacingLeft=10;fontColor=#000000;" vertex="1" parent="51">
                    <mxGeometry width="730" height="50" as="geometry"/>
                </mxCell>
                <mxCell id="26" value="" style="rounded=0;whiteSpace=wrap;html=1;strokeWidth=1;fillColor=#f9f7ed;fontSize=30;align=left;strokeColor=#36393d;" vertex="1" parent="51">
                    <mxGeometry x="160" y="10" width="100" height="30" as="geometry"/>
                </mxCell>
                <mxCell id="27" value="" style="rounded=0;whiteSpace=wrap;html=1;strokeWidth=1;fillColor=#f9f7ed;fontSize=30;align=left;strokeColor=#36393d;" vertex="1" parent="51">
                    <mxGeometry x="300" y="10" width="100" height="30" as="geometry"/>
                </mxCell>
                <mxCell id="28" value="" style="rounded=0;whiteSpace=wrap;html=1;strokeWidth=1;fillColor=#f9f7ed;fontSize=30;align=left;strokeColor=#36393d;" vertex="1" parent="51">
                    <mxGeometry x="440" y="10" width="100" height="30" as="geometry"/>
                </mxCell>
                <mxCell id="29" value="" style="rounded=0;whiteSpace=wrap;html=1;strokeWidth=1;fillColor=#f9f7ed;fontSize=30;align=left;strokeColor=#36393d;" vertex="1" parent="51">
                    <mxGeometry x="580" y="10" width="100" height="30" as="geometry"/>
                </mxCell>
                <mxCell id="52" value="" style="group" vertex="1" connectable="0" parent="1">
                    <mxGeometry x="680" y="230" width="730" height="50" as="geometry"/>
                </mxCell>
                <mxCell id="31" value="Line 1" style="rounded=0;whiteSpace=wrap;html=1;strokeColor=none;strokeWidth=3;fillColor=#cdeb8b;fontSize=30;fontColor=#000000;labelPosition=center;verticalLabelPosition=middle;align=left;verticalAlign=middle;spacingLeft=10;" vertex="1" parent="52">
                    <mxGeometry width="730" height="50" as="geometry"/>
                </mxCell>
                <mxCell id="32" value="" style="rounded=0;whiteSpace=wrap;html=1;strokeWidth=1;fillColor=#f9f7ed;fontSize=30;align=left;strokeColor=#36393d;" vertex="1" parent="52">
                    <mxGeometry x="160" y="10" width="100" height="30" as="geometry"/>
                </mxCell>
                <mxCell id="33" value="" style="rounded=0;whiteSpace=wrap;html=1;strokeWidth=1;fillColor=#f9f7ed;fontSize=30;align=left;strokeColor=#36393d;" vertex="1" parent="52">
                    <mxGeometry x="300" y="10" width="100" height="30" as="geometry"/>
                </mxCell>
                <mxCell id="34" value="" style="rounded=0;whiteSpace=wrap;html=1;strokeWidth=1;fillColor=#f9f7ed;fontSize=30;align=left;strokeColor=#36393d;" vertex="1" parent="52">
                    <mxGeometry x="440" y="10" width="100" height="30" as="geometry"/>
                </mxCell>
                <mxCell id="35" value="" style="rounded=0;whiteSpace=wrap;html=1;strokeWidth=1;fillColor=#f9f7ed;fontSize=30;align=left;strokeColor=#36393d;" vertex="1" parent="52">
                    <mxGeometry x="580" y="10" width="100" height="30" as="geometry"/>
                </mxCell>
                <mxCell id="53" value="" style="group" vertex="1" connectable="0" parent="1">
                    <mxGeometry x="680" y="290" width="730" height="50" as="geometry"/>
                </mxCell>
                <mxCell id="37" value="Line 0" style="rounded=0;whiteSpace=wrap;html=1;strokeColor=none;strokeWidth=3;fillColor=#cdeb8b;fontSize=30;fontColor=#000000;labelPosition=center;verticalLabelPosition=middle;align=left;verticalAlign=middle;spacingLeft=10;" vertex="1" parent="53">
                    <mxGeometry width="730" height="50" as="geometry"/>
                </mxCell>
                <mxCell id="38" value="" style="rounded=0;whiteSpace=wrap;html=1;strokeWidth=1;fillColor=#f9f7ed;fontSize=30;align=left;strokeColor=#36393d;" vertex="1" parent="53">
                    <mxGeometry x="160" y="10" width="100" height="30" as="geometry"/>
                </mxCell>
                <mxCell id="39" value="" style="rounded=0;whiteSpace=wrap;html=1;strokeWidth=1;fillColor=#f9f7ed;fontSize=30;align=left;strokeColor=#36393d;" vertex="1" parent="53">
                    <mxGeometry x="300" y="10" width="100" height="30" as="geometry"/>
                </mxCell>
                <mxCell id="40" value="" style="rounded=0;whiteSpace=wrap;html=1;strokeWidth=1;fillColor=#f9f7ed;fontSize=30;align=left;strokeColor=#36393d;" vertex="1" parent="53">
                    <mxGeometry x="440" y="10" width="100" height="30" as="geometry"/>
                </mxCell>
                <mxCell id="41" value="" style="rounded=0;whiteSpace=wrap;html=1;strokeWidth=1;fillColor=#f9f7ed;fontSize=30;align=left;strokeColor=#36393d;" vertex="1" parent="53">
                    <mxGeometry x="580" y="10" width="100" height="30" as="geometry"/>
                </mxCell>
                <mxCell id="73" value="" style="group;" vertex="1" connectable="0" parent="1">
                    <mxGeometry x="310" y="380" width="1140" height="270" as="geometry"/>
                </mxCell>
                <mxCell id="74" value="&lt;font style=&quot;font-size: 30px&quot;&gt;Set 2&lt;/font&gt;" style="rounded=0;html=1;strokeColor=#6c8ebf;strokeWidth=3;fillColor=#dae8fc;labelPosition=center;verticalLabelPosition=middle;align=left;verticalAlign=top;spacing=0;whiteSpace=wrap;spacingLeft=10;spacingTop=0;fontColor=#000000;" vertex="1" parent="73">
                    <mxGeometry width="1140" height="270" as="geometry"/>
                </mxCell>
                <mxCell id="75" value="&lt;font color=&quot;#000000&quot;&gt;Replace&lt;br&gt;&lt;div&gt;&lt;span&gt;Controller&lt;/span&gt;&lt;/div&gt;&lt;/font&gt;" style="rounded=1;whiteSpace=wrap;html=1;strokeColor=#d6b656;strokeWidth=3;fillColor=#fff2cc;fontSize=30;align=center;glass=0;comic=0;shadow=0;" vertex="1" parent="73">
                    <mxGeometry x="120" y="20" width="180" height="230" as="geometry"/>
                </mxCell>
                <mxCell id="85" value="" style="group;strokeColor=#000000;strokeWidth=3;" vertex="1" connectable="0" parent="73">
                    <mxGeometry x="370" y="20" width="730" height="50" as="geometry"/>
                </mxCell>
                <mxCell id="86" value="" style="group;strokeWidth=3;strokeColor=#000000;" vertex="1" connectable="0" parent="73">
                    <mxGeometry x="370" y="80" width="730" height="50" as="geometry"/>
                </mxCell>
                <mxCell id="87" value="" style="group;strokeColor=#000000;strokeWidth=3;" vertex="1" connectable="0" parent="73">
                    <mxGeometry x="370" y="140" width="730" height="50" as="geometry"/>
                </mxCell>
                <mxCell id="88" value="" style="group;strokeColor=#000000;strokeWidth=3;" vertex="1" connectable="0" parent="73">
                    <mxGeometry x="370" y="200" width="730" height="50" as="geometry"/>
                </mxCell>
                <mxCell id="89" value="" style="group;rounded=0;fontSize=30;fontColor=#000000;align=left;verticalAlign=middle;strokeColor=none;strokeWidth=3;fillColor=none;spacingLeft=10;" vertex="1" connectable="0" parent="73">
                    <mxGeometry x="370" y="20" width="730" height="50" as="geometry"/>
                </mxCell>
                <mxCell id="90" value="Line 3" style="rounded=0;whiteSpace=wrap;html=1;strokeColor=none;strokeWidth=3;fillColor=#cdeb8b;fontSize=30;fontColor=#000000;labelPosition=center;verticalLabelPosition=middle;align=left;verticalAlign=middle;spacingLeft=10;" vertex="1" parent="89">
                    <mxGeometry width="730" height="50" as="geometry"/>
                </mxCell>
                <mxCell id="91" value="" style="rounded=0;whiteSpace=wrap;html=1;strokeWidth=1;fillColor=#f9f7ed;fontSize=30;align=left;strokeColor=#36393d;" vertex="1" parent="89">
                    <mxGeometry x="160" y="10" width="100" height="30" as="geometry"/>
                </mxCell>
                <mxCell id="92" value="" style="rounded=0;whiteSpace=wrap;html=1;strokeWidth=1;fillColor=#f9f7ed;fontSize=30;align=left;strokeColor=#36393d;" vertex="1" parent="89">
                    <mxGeometry x="300" y="10" width="100" height="30" as="geometry"/>
                </mxCell>
                <mxCell id="93" value="" style="rounded=0;whiteSpace=wrap;html=1;strokeWidth=1;fillColor=#f9f7ed;fontSize=30;align=left;strokeColor=#36393d;" vertex="1" parent="89">
                    <mxGeometry x="440" y="10" width="100" height="30" as="geometry"/>
                </mxCell>
                <mxCell id="94" value="" style="rounded=0;whiteSpace=wrap;html=1;strokeWidth=1;fillColor=#f9f7ed;fontSize=30;align=left;strokeColor=#36393d;" vertex="1" parent="89">
                    <mxGeometry x="580" y="10" width="100" height="30" as="geometry"/>
                </mxCell>
                <mxCell id="95" value="" style="group;strokeColor=none;" vertex="1" connectable="0" parent="73">
                    <mxGeometry x="370" y="80" width="730" height="50" as="geometry"/>
                </mxCell>
                <mxCell id="96" value="Line 2" style="rounded=0;whiteSpace=wrap;html=1;strokeColor=none;strokeWidth=3;fillColor=#cdeb8b;fontSize=30;fontColor=#000000;labelPosition=center;verticalLabelPosition=middle;align=left;verticalAlign=middle;spacingLeft=10;" vertex="1" parent="95">
                    <mxGeometry width="730" height="50" as="geometry"/>
                </mxCell>
                <mxCell id="97" value="" style="rounded=0;whiteSpace=wrap;html=1;strokeWidth=1;fillColor=#f9f7ed;fontSize=30;align=left;strokeColor=#36393d;" vertex="1" parent="95">
                    <mxGeometry x="160" y="10" width="100" height="30" as="geometry"/>
                </mxCell>
                <mxCell id="98" value="" style="rounded=0;whiteSpace=wrap;html=1;strokeWidth=1;fillColor=#f9f7ed;fontSize=30;align=left;strokeColor=#36393d;" vertex="1" parent="95">
                    <mxGeometry x="300" y="10" width="100" height="30" as="geometry"/>
                </mxCell>
                <mxCell id="99" value="" style="rounded=0;whiteSpace=wrap;html=1;strokeWidth=1;fillColor=#f9f7ed;fontSize=30;align=left;strokeColor=#36393d;" vertex="1" parent="95">
                    <mxGeometry x="440" y="10" width="100" height="30" as="geometry"/>
                </mxCell>
                <mxCell id="100" value="" style="rounded=0;whiteSpace=wrap;html=1;strokeWidth=1;fillColor=#f9f7ed;fontSize=30;align=left;strokeColor=#36393d;" vertex="1" parent="95">
                    <mxGeometry x="580" y="10" width="100" height="30" as="geometry"/>
                </mxCell>
                <mxCell id="101" value="" style="group" vertex="1" connectable="0" parent="73">
                    <mxGeometry x="370" y="140" width="730" height="50" as="geometry"/>
                </mxCell>
                <mxCell id="102" value="Line 1" style="rounded=0;whiteSpace=wrap;html=1;strokeColor=none;strokeWidth=3;fillColor=#cdeb8b;fontSize=30;fontColor=#000000;labelPosition=center;verticalLabelPosition=middle;align=left;verticalAlign=middle;spacingLeft=10;" vertex="1" parent="101">
                    <mxGeometry width="730" height="50" as="geometry"/>
                </mxCell>
                <mxCell id="103" value="" style="rounded=0;whiteSpace=wrap;html=1;strokeWidth=1;fillColor=#f9f7ed;fontSize=30;align=left;strokeColor=#36393d;" vertex="1" parent="101">
                    <mxGeometry x="160" y="10" width="100" height="30" as="geometry"/>
                </mxCell>
                <mxCell id="104" value="" style="rounded=0;whiteSpace=wrap;html=1;strokeWidth=1;fillColor=#f9f7ed;fontSize=30;align=left;strokeColor=#36393d;" vertex="1" parent="101">
                    <mxGeometry x="300" y="10" width="100" height="30" as="geometry"/>
                </mxCell>
                <mxCell id="105" value="" style="rounded=0;whiteSpace=wrap;html=1;strokeWidth=1;fillColor=#f9f7ed;fontSize=30;align=left;strokeColor=#36393d;" vertex="1" parent="101">
                    <mxGeometry x="440" y="10" width="100" height="30" as="geometry"/>
                </mxCell>
                <mxCell id="106" value="" style="rounded=0;whiteSpace=wrap;html=1;strokeWidth=1;fillColor=#f9f7ed;fontSize=30;align=left;strokeColor=#36393d;" vertex="1" parent="101">
                    <mxGeometry x="580" y="10" width="100" height="30" as="geometry"/>
                </mxCell>
                <mxCell id="107" value="" style="group" vertex="1" connectable="0" parent="73">
                    <mxGeometry x="370" y="200" width="730" height="50" as="geometry"/>
                </mxCell>
                <mxCell id="108" value="Line 0" style="rounded=0;whiteSpace=wrap;html=1;strokeColor=none;strokeWidth=3;fillColor=#cdeb8b;fontSize=30;fontColor=#000000;labelPosition=center;verticalLabelPosition=middle;align=left;verticalAlign=middle;spacingLeft=10;" vertex="1" parent="107">
                    <mxGeometry width="730" height="50" as="geometry"/>
                </mxCell>
                <mxCell id="109" value="" style="rounded=0;whiteSpace=wrap;html=1;strokeWidth=1;fillColor=#f9f7ed;fontSize=30;align=left;strokeColor=#36393d;" vertex="1" parent="107">
                    <mxGeometry x="160" y="10" width="100" height="30" as="geometry"/>
                </mxCell>
                <mxCell id="110" value="" style="rounded=0;whiteSpace=wrap;html=1;strokeWidth=1;fillColor=#f9f7ed;fontSize=30;align=left;strokeColor=#36393d;" vertex="1" parent="107">
                    <mxGeometry x="300" y="10" width="100" height="30" as="geometry"/>
                </mxCell>
                <mxCell id="111" value="" style="rounded=0;whiteSpace=wrap;html=1;strokeWidth=1;fillColor=#f9f7ed;fontSize=30;align=left;strokeColor=#36393d;" vertex="1" parent="107">
                    <mxGeometry x="440" y="10" width="100" height="30" as="geometry"/>
                </mxCell>
                <mxCell id="112" value="" style="rounded=0;whiteSpace=wrap;html=1;strokeWidth=1;fillColor=#f9f7ed;fontSize=30;align=left;strokeColor=#36393d;" vertex="1" parent="107">
                    <mxGeometry x="580" y="10" width="100" height="30" as="geometry"/>
                </mxCell>
                <mxCell id="113" value="" style="group" vertex="1" connectable="0" parent="1">
                    <mxGeometry x="310" y="670" width="1140" height="270" as="geometry"/>
                </mxCell>
                <mxCell id="114" value="&lt;font style=&quot;font-size: 30px&quot;&gt;Set 1&lt;/font&gt;" style="rounded=0;html=1;strokeColor=#6c8ebf;strokeWidth=3;fillColor=#dae8fc;labelPosition=center;verticalLabelPosition=middle;align=left;verticalAlign=top;spacing=0;whiteSpace=wrap;spacingLeft=10;spacingTop=0;fontColor=#000000;" vertex="1" parent="113">
                    <mxGeometry width="1140" height="270" as="geometry"/>
                </mxCell>
                <mxCell id="115" value="&lt;font color=&quot;#000000&quot;&gt;Replace&lt;br&gt;&lt;div&gt;&lt;span&gt;Controller&lt;/span&gt;&lt;/div&gt;&lt;/font&gt;" style="rounded=1;whiteSpace=wrap;html=1;strokeColor=#d6b656;strokeWidth=3;fillColor=#fff2cc;fontSize=30;align=center;glass=0;comic=0;shadow=0;" vertex="1" parent="113">
                    <mxGeometry x="120" y="20" width="180" height="230" as="geometry"/>
                </mxCell>
                <mxCell id="116" value="" style="group;strokeColor=#000000;strokeWidth=3;" vertex="1" connectable="0" parent="113">
                    <mxGeometry x="370" y="20" width="730" height="50" as="geometry"/>
                </mxCell>
                <mxCell id="117" value="" style="group;strokeWidth=3;strokeColor=#000000;" vertex="1" connectable="0" parent="113">
                    <mxGeometry x="370" y="80" width="730" height="50" as="geometry"/>
                </mxCell>
                <mxCell id="118" value="" style="group;strokeColor=#000000;strokeWidth=3;" vertex="1" connectable="0" parent="113">
                    <mxGeometry x="370" y="140" width="730" height="50" as="geometry"/>
                </mxCell>
                <mxCell id="119" value="" style="group;strokeColor=#000000;strokeWidth=3;" vertex="1" connectable="0" parent="113">
                    <mxGeometry x="370" y="200" width="730" height="50" as="geometry"/>
                </mxCell>
                <mxCell id="120" value="" style="group;rounded=0;fontSize=30;fontColor=#000000;align=left;verticalAlign=middle;strokeColor=none;strokeWidth=3;fillColor=none;spacingLeft=10;" vertex="1" connectable="0" parent="113">
                    <mxGeometry x="370" y="20" width="730" height="50" as="geometry"/>
                </mxCell>
                <mxCell id="121" value="Line 3" style="rounded=0;whiteSpace=wrap;html=1;strokeColor=none;strokeWidth=3;fillColor=#cdeb8b;fontSize=30;fontColor=#000000;labelPosition=center;verticalLabelPosition=middle;align=left;verticalAlign=middle;spacingLeft=10;" vertex="1" parent="120">
                    <mxGeometry width="730" height="50" as="geometry"/>
                </mxCell>
                <mxCell id="122" value="" style="rounded=0;whiteSpace=wrap;html=1;strokeWidth=1;fillColor=#f9f7ed;fontSize=30;align=left;strokeColor=#36393d;" vertex="1" parent="120">
                    <mxGeometry x="160" y="10" width="100" height="30" as="geometry"/>
                </mxCell>
                <mxCell id="123" value="" style="rounded=0;whiteSpace=wrap;html=1;strokeWidth=1;fillColor=#f9f7ed;fontSize=30;align=left;strokeColor=#36393d;" vertex="1" parent="120">
                    <mxGeometry x="300" y="10" width="100" height="30" as="geometry"/>
                </mxCell>
                <mxCell id="124" value="" style="rounded=0;whiteSpace=wrap;html=1;strokeWidth=1;fillColor=#f9f7ed;fontSize=30;align=left;strokeColor=#36393d;" vertex="1" parent="120">
                    <mxGeometry x="440" y="10" width="100" height="30" as="geometry"/>
                </mxCell>
                <mxCell id="125" value="" style="rounded=0;whiteSpace=wrap;html=1;strokeWidth=1;fillColor=#f9f7ed;fontSize=30;align=left;strokeColor=#36393d;" vertex="1" parent="120">
                    <mxGeometry x="580" y="10" width="100" height="30" as="geometry"/>
                </mxCell>
                <mxCell id="126" value="" style="group" vertex="1" connectable="0" parent="113">
                    <mxGeometry x="370" y="80" width="730" height="50" as="geometry"/>
                </mxCell>
                <mxCell id="127" value="Line 2" style="rounded=0;whiteSpace=wrap;html=1;strokeColor=none;strokeWidth=3;fillColor=#cdeb8b;fontSize=30;fontColor=#000000;labelPosition=center;verticalLabelPosition=middle;align=left;verticalAlign=middle;spacingLeft=10;" vertex="1" parent="126">
                    <mxGeometry width="730" height="50" as="geometry"/>
                </mxCell>
                <mxCell id="128" value="" style="rounded=0;whiteSpace=wrap;html=1;strokeWidth=1;fillColor=#f9f7ed;fontSize=30;align=left;strokeColor=#36393d;" vertex="1" parent="126">
                    <mxGeometry x="160" y="10" width="100" height="30" as="geometry"/>
                </mxCell>
                <mxCell id="129" value="" style="rounded=0;whiteSpace=wrap;html=1;strokeWidth=1;fillColor=#f9f7ed;fontSize=30;align=left;strokeColor=#36393d;" vertex="1" parent="126">
                    <mxGeometry x="300" y="10" width="100" height="30" as="geometry"/>
                </mxCell>
                <mxCell id="130" value="" style="rounded=0;whiteSpace=wrap;html=1;strokeWidth=1;fillColor=#f9f7ed;fontSize=30;align=left;strokeColor=#36393d;" vertex="1" parent="126">
                    <mxGeometry x="440" y="10" width="100" height="30" as="geometry"/>
                </mxCell>
                <mxCell id="131" value="" style="rounded=0;whiteSpace=wrap;html=1;strokeWidth=1;fillColor=#f9f7ed;fontSize=30;align=left;strokeColor=#36393d;" vertex="1" parent="126">
                    <mxGeometry x="580" y="10" width="100" height="30" as="geometry"/>
                </mxCell>
                <mxCell id="132" value="" style="group" vertex="1" connectable="0" parent="113">
                    <mxGeometry x="370" y="140" width="730" height="50" as="geometry"/>
                </mxCell>
                <mxCell id="133" value="Line 1" style="rounded=0;whiteSpace=wrap;html=1;strokeColor=none;strokeWidth=3;fillColor=#cdeb8b;fontSize=30;fontColor=#000000;labelPosition=center;verticalLabelPosition=middle;align=left;verticalAlign=middle;spacingLeft=10;" vertex="1" parent="132">
                    <mxGeometry width="730" height="50" as="geometry"/>
                </mxCell>
                <mxCell id="134" value="" style="rounded=0;whiteSpace=wrap;html=1;strokeWidth=1;fillColor=#f9f7ed;fontSize=30;align=left;strokeColor=#36393d;" vertex="1" parent="132">
                    <mxGeometry x="160" y="10" width="100" height="30" as="geometry"/>
                </mxCell>
                <mxCell id="135" value="" style="rounded=0;whiteSpace=wrap;html=1;strokeWidth=1;fillColor=#f9f7ed;fontSize=30;align=left;strokeColor=#36393d;" vertex="1" parent="132">
                    <mxGeometry x="300" y="10" width="100" height="30" as="geometry"/>
                </mxCell>
                <mxCell id="136" value="" style="rounded=0;whiteSpace=wrap;html=1;strokeWidth=1;fillColor=#f9f7ed;fontSize=30;align=left;strokeColor=#36393d;" vertex="1" parent="132">
                    <mxGeometry x="440" y="10" width="100" height="30" as="geometry"/>
                </mxCell>
                <mxCell id="137" value="" style="rounded=0;whiteSpace=wrap;html=1;strokeWidth=1;fillColor=#f9f7ed;fontSize=30;align=left;strokeColor=#36393d;" vertex="1" parent="132">
                    <mxGeometry x="580" y="10" width="100" height="30" as="geometry"/>
                </mxCell>
                <mxCell id="138" value="" style="group" vertex="1" connectable="0" parent="113">
                    <mxGeometry x="370" y="200" width="730" height="50" as="geometry"/>
                </mxCell>
                <mxCell id="139" value="Line 0" style="rounded=0;whiteSpace=wrap;html=1;strokeColor=none;strokeWidth=3;fillColor=#cdeb8b;fontSize=30;fontColor=#000000;labelPosition=center;verticalLabelPosition=middle;align=left;verticalAlign=middle;spacingLeft=10;" vertex="1" parent="138">
                    <mxGeometry width="730" height="50" as="geometry"/>
                </mxCell>
                <mxCell id="140" value="" style="rounded=0;whiteSpace=wrap;html=1;strokeWidth=1;fillColor=#f9f7ed;fontSize=30;align=left;strokeColor=#36393d;" vertex="1" parent="138">
                    <mxGeometry x="160" y="10" width="100" height="30" as="geometry"/>
                </mxCell>
                <mxCell id="141" value="" style="rounded=0;whiteSpace=wrap;html=1;strokeWidth=1;fillColor=#f9f7ed;fontSize=30;align=left;strokeColor=#36393d;" vertex="1" parent="138">
                    <mxGeometry x="300" y="10" width="100" height="30" as="geometry"/>
                </mxCell>
                <mxCell id="142" value="" style="rounded=0;whiteSpace=wrap;html=1;strokeWidth=1;fillColor=#f9f7ed;fontSize=30;align=left;strokeColor=#36393d;" vertex="1" parent="138">
                    <mxGeometry x="440" y="10" width="100" height="30" as="geometry"/>
                </mxCell>
                <mxCell id="143" value="" style="rounded=0;whiteSpace=wrap;html=1;strokeWidth=1;fillColor=#f9f7ed;fontSize=30;align=left;strokeColor=#36393d;" vertex="1" parent="138">
                    <mxGeometry x="580" y="10" width="100" height="30" as="geometry"/>
                </mxCell>
                <mxCell id="145" value="" style="group" vertex="1" connectable="0" parent="1">
                    <mxGeometry x="310" y="960" width="1140" height="270" as="geometry"/>
                </mxCell>
                <mxCell id="146" value="&lt;font style=&quot;font-size: 30px&quot;&gt;Set 0&lt;/font&gt;" style="rounded=0;html=1;strokeColor=#6c8ebf;strokeWidth=3;fillColor=#dae8fc;labelPosition=center;verticalLabelPosition=middle;align=left;verticalAlign=top;spacing=0;whiteSpace=wrap;spacingLeft=10;spacingTop=0;fontColor=#000000;" vertex="1" parent="145">
                    <mxGeometry width="1140" height="270" as="geometry"/>
                </mxCell>
                <mxCell id="147" value="&lt;font color=&quot;#000000&quot;&gt;Replace&lt;br&gt;&lt;div&gt;&lt;span&gt;Controller&lt;/span&gt;&lt;/div&gt;&lt;/font&gt;" style="rounded=1;whiteSpace=wrap;html=1;strokeColor=#d6b656;strokeWidth=3;fillColor=#fff2cc;fontSize=30;align=center;glass=0;comic=0;shadow=0;" vertex="1" parent="145">
                    <mxGeometry x="120" y="20" width="180" height="230" as="geometry"/>
                </mxCell>
                <mxCell id="148" value="" style="group;strokeColor=#000000;strokeWidth=3;" vertex="1" connectable="0" parent="145">
                    <mxGeometry x="370" y="20" width="730" height="50" as="geometry"/>
                </mxCell>
                <mxCell id="149" value="" style="group;strokeWidth=3;strokeColor=#000000;" vertex="1" connectable="0" parent="145">
                    <mxGeometry x="370" y="80" width="730" height="50" as="geometry"/>
                </mxCell>
                <mxCell id="150" value="" style="group;strokeColor=#000000;strokeWidth=3;" vertex="1" connectable="0" parent="145">
                    <mxGeometry x="370" y="140" width="730" height="50" as="geometry"/>
                </mxCell>
                <mxCell id="151" value="" style="group;strokeColor=#000000;strokeWidth=3;" vertex="1" connectable="0" parent="145">
                    <mxGeometry x="370" y="200" width="730" height="50" as="geometry"/>
                </mxCell>
                <mxCell id="152" value="" style="group" vertex="1" connectable="0" parent="145">
                    <mxGeometry x="370" y="20" width="730" height="50" as="geometry"/>
                </mxCell>
                <mxCell id="153" value="Line 3" style="rounded=0;whiteSpace=wrap;html=1;strokeColor=none;strokeWidth=3;fillColor=#cdeb8b;fontSize=30;fontColor=#000000;labelPosition=center;verticalLabelPosition=middle;align=left;verticalAlign=middle;spacingLeft=10;" vertex="1" parent="152">
                    <mxGeometry width="730" height="50" as="geometry"/>
                </mxCell>
                <mxCell id="154" value="" style="rounded=0;whiteSpace=wrap;html=1;strokeWidth=1;fillColor=#f9f7ed;fontSize=30;align=left;strokeColor=#36393d;" vertex="1" parent="152">
                    <mxGeometry x="160" y="10" width="100" height="30" as="geometry"/>
                </mxCell>
                <mxCell id="155" value="" style="rounded=0;whiteSpace=wrap;html=1;strokeWidth=1;fillColor=#f9f7ed;fontSize=30;align=left;strokeColor=#36393d;" vertex="1" parent="152">
                    <mxGeometry x="300" y="10" width="100" height="30" as="geometry"/>
                </mxCell>
                <mxCell id="156" value="" style="rounded=0;whiteSpace=wrap;html=1;strokeWidth=1;fillColor=#f9f7ed;fontSize=30;align=left;strokeColor=#36393d;" vertex="1" parent="152">
                    <mxGeometry x="440" y="10" width="100" height="30" as="geometry"/>
                </mxCell>
                <mxCell id="157" value="" style="rounded=0;whiteSpace=wrap;html=1;strokeWidth=1;fillColor=#f9f7ed;fontSize=30;align=left;strokeColor=#36393d;" vertex="1" parent="152">
                    <mxGeometry x="580" y="10" width="100" height="30" as="geometry"/>
                </mxCell>
                <mxCell id="158" value="" style="group" vertex="1" connectable="0" parent="145">
                    <mxGeometry x="370" y="80" width="730" height="50" as="geometry"/>
                </mxCell>
                <mxCell id="159" value="Line 2" style="rounded=0;whiteSpace=wrap;html=1;strokeColor=none;strokeWidth=3;fillColor=#cdeb8b;fontSize=30;fontColor=#000000;labelPosition=center;verticalLabelPosition=middle;align=left;verticalAlign=middle;spacingLeft=10;" vertex="1" parent="158">
                    <mxGeometry width="730" height="50" as="geometry"/>
                </mxCell>
                <mxCell id="160" value="" style="rounded=0;whiteSpace=wrap;html=1;strokeWidth=1;fillColor=#f9f7ed;fontSize=30;align=left;strokeColor=#36393d;" vertex="1" parent="158">
                    <mxGeometry x="160" y="10" width="100" height="30" as="geometry"/>
                </mxCell>
                <mxCell id="161" value="" style="rounded=0;whiteSpace=wrap;html=1;strokeWidth=1;fillColor=#f9f7ed;fontSize=30;align=left;strokeColor=#36393d;" vertex="1" parent="158">
                    <mxGeometry x="300" y="10" width="100" height="30" as="geometry"/>
                </mxCell>
                <mxCell id="162" value="" style="rounded=0;whiteSpace=wrap;html=1;strokeWidth=1;fillColor=#f9f7ed;fontSize=30;align=left;strokeColor=#36393d;" vertex="1" parent="158">
                    <mxGeometry x="440" y="10" width="100" height="30" as="geometry"/>
                </mxCell>
                <mxCell id="163" value="" style="rounded=0;whiteSpace=wrap;html=1;strokeWidth=1;fillColor=#f9f7ed;fontSize=30;align=left;strokeColor=#36393d;" vertex="1" parent="158">
                    <mxGeometry x="580" y="10" width="100" height="30" as="geometry"/>
                </mxCell>
                <mxCell id="164" value="" style="group" vertex="1" connectable="0" parent="145">
                    <mxGeometry x="370" y="140" width="730" height="50" as="geometry"/>
                </mxCell>
                <mxCell id="165" value="Line 1" style="rounded=0;whiteSpace=wrap;html=1;strokeColor=none;strokeWidth=3;fillColor=#cdeb8b;fontSize=30;fontColor=#000000;labelPosition=center;verticalLabelPosition=middle;align=left;verticalAlign=middle;spacingLeft=10;" vertex="1" parent="164">
                    <mxGeometry width="730" height="50" as="geometry"/>
                </mxCell>
                <mxCell id="166" value="" style="rounded=0;whiteSpace=wrap;html=1;strokeWidth=1;fillColor=#f9f7ed;fontSize=30;align=left;strokeColor=#36393d;" vertex="1" parent="164">
                    <mxGeometry x="160" y="10" width="100" height="30" as="geometry"/>
                </mxCell>
                <mxCell id="167" value="" style="rounded=0;whiteSpace=wrap;html=1;strokeWidth=1;fillColor=#f9f7ed;fontSize=30;align=left;strokeColor=#36393d;" vertex="1" parent="164">
                    <mxGeometry x="300" y="10" width="100" height="30" as="geometry"/>
                </mxCell>
                <mxCell id="168" value="" style="rounded=0;whiteSpace=wrap;html=1;strokeWidth=1;fillColor=#f9f7ed;fontSize=30;align=left;strokeColor=#36393d;" vertex="1" parent="164">
                    <mxGeometry x="440" y="10" width="100" height="30" as="geometry"/>
                </mxCell>
                <mxCell id="169" value="" style="rounded=0;whiteSpace=wrap;html=1;strokeWidth=1;fillColor=#f9f7ed;fontSize=30;align=left;strokeColor=#36393d;" vertex="1" parent="164">
                    <mxGeometry x="580" y="10" width="100" height="30" as="geometry"/>
                </mxCell>
                <mxCell id="170" value="" style="group" vertex="1" connectable="0" parent="145">
                    <mxGeometry x="370" y="200" width="730" height="50" as="geometry"/>
                </mxCell>
                <mxCell id="171" value="Line 0" style="rounded=0;whiteSpace=wrap;html=1;strokeColor=none;strokeWidth=3;fillColor=#cdeb8b;fontSize=30;fontColor=#000000;labelPosition=center;verticalLabelPosition=middle;align=left;verticalAlign=middle;spacingLeft=10;" vertex="1" parent="170">
                    <mxGeometry width="730" height="50" as="geometry"/>
                </mxCell>
                <mxCell id="172" value="" style="rounded=0;whiteSpace=wrap;html=1;strokeWidth=1;fillColor=#f9f7ed;fontSize=30;align=left;strokeColor=#36393d;" vertex="1" parent="170">
                    <mxGeometry x="160" y="10" width="100" height="30" as="geometry"/>
                </mxCell>
                <mxCell id="173" value="" style="rounded=0;whiteSpace=wrap;html=1;strokeWidth=1;fillColor=#f9f7ed;fontSize=30;align=left;strokeColor=#36393d;" vertex="1" parent="170">
                    <mxGeometry x="300" y="10" width="100" height="30" as="geometry"/>
                </mxCell>
                <mxCell id="174" value="" style="rounded=0;whiteSpace=wrap;html=1;strokeWidth=1;fillColor=#f9f7ed;fontSize=30;align=left;strokeColor=#36393d;" vertex="1" parent="170">
                    <mxGeometry x="440" y="10" width="100" height="30" as="geometry"/>
                </mxCell>
                <mxCell id="175" value="" style="rounded=0;whiteSpace=wrap;html=1;strokeWidth=1;fillColor=#f9f7ed;fontSize=30;align=left;strokeColor=#36393d;" vertex="1" parent="170">
                    <mxGeometry x="580" y="10" width="100" height="30" as="geometry"/>
                </mxCell>
                <mxCell id="176" value="&lt;font color=&quot;#000000&quot; style=&quot;font-size: 40px;&quot;&gt;Cache Controller&lt;/font&gt;" style="rounded=1;whiteSpace=wrap;html=1;shadow=0;glass=0;comic=0;strokeColor=#d6b656;strokeWidth=3;fillColor=#fff2cc;fontSize=40;align=center;verticalAlign=top;arcSize=12;" vertex="1" parent="1">
                    <mxGeometry x="-400" y="90" width="530" height="1140" as="geometry"/>
                </mxCell>
                <mxCell id="178" value="&lt;font color=&quot;#000000&quot;&gt;Controller Logic&lt;/font&gt;" style="rounded=0;whiteSpace=wrap;html=1;shadow=0;glass=0;comic=0;strokeColor=#6c8ebf;strokeWidth=3;fillColor=#dae8fc;fontSize=40;align=center;" vertex="1" parent="1">
                    <mxGeometry x="-350" y="270" width="440" height="180" as="geometry"/>
                </mxCell>
                <mxCell id="182" style="edgeStyle=orthogonalEdgeStyle;rounded=0;orthogonalLoop=1;jettySize=auto;html=1;exitX=0.5;exitY=0;exitDx=0;exitDy=0;entryX=0.5;entryY=1;entryDx=0;entryDy=0;endSize=8;strokeColor=#000000;strokeWidth=3;fontSize=40;fontColor=#FFFFFF;" edge="1" parent="1" source="179" target="178">
                    <mxGeometry relative="1" as="geometry"/>
                </mxCell>
                <mxCell id="179" value="&lt;font color=&quot;#000000&quot; style=&quot;font-size: 40px;&quot;&gt;Finite State Machine&lt;/font&gt;" style="rounded=0;whiteSpace=wrap;html=1;shadow=0;glass=0;comic=0;strokeColor=#6c8ebf;strokeWidth=3;fillColor=#dae8fc;fontSize=40;align=center;" vertex="1" parent="1">
                    <mxGeometry x="-350" y="570" width="440" height="180" as="geometry"/>
                </mxCell>
                <mxCell id="181" style="edgeStyle=orthogonalEdgeStyle;rounded=0;orthogonalLoop=1;jettySize=auto;html=1;exitX=0.5;exitY=0;exitDx=0;exitDy=0;entryX=0.5;entryY=1;entryDx=0;entryDy=0;fontSize=40;fontColor=#FFFFFF;strokeColor=#000000;strokeWidth=3;endSize=8;" edge="1" parent="1" source="180" target="179">
                    <mxGeometry relative="1" as="geometry"/>
                </mxCell>
                <mxCell id="180" value="&lt;font color=&quot;#000000&quot;&gt;Counter&lt;/font&gt;" style="rounded=0;whiteSpace=wrap;html=1;shadow=0;glass=0;comic=0;strokeColor=#6c8ebf;strokeWidth=3;fillColor=#dae8fc;fontSize=40;align=center;" vertex="1" parent="1">
                    <mxGeometry x="-350" y="870" width="440" height="180" as="geometry"/>
                </mxCell>
                <mxCell id="183" value="" style="endArrow=classic;html=1;strokeColor=#000000;strokeWidth=5;fontSize=40;fontColor=#FFFFFF;endSize=8;" edge="1" parent="1" target="7">
                    <mxGeometry width="50" height="50" relative="1" as="geometry">
                        <mxPoint x="131" y="225" as="sourcePoint"/>
                        <mxPoint x="200" y="225" as="targetPoint"/>
                    </mxGeometry>
                </mxCell>
                <mxCell id="184" value="" style="endArrow=classic;html=1;strokeColor=#000000;strokeWidth=5;fontSize=40;fontColor=#FFFFFF;entryX=0;entryY=0.5;entryDx=0;entryDy=0;endSize=8;" edge="1" parent="1" target="74">
                    <mxGeometry width="50" height="50" relative="1" as="geometry">
                        <mxPoint x="131" y="515" as="sourcePoint"/>
                        <mxPoint x="730" y="330" as="targetPoint"/>
                    </mxGeometry>
                </mxCell>
                <mxCell id="185" value="" style="endArrow=classic;html=1;strokeColor=#000000;strokeWidth=5;fontSize=40;fontColor=#FFFFFF;entryX=0;entryY=0.5;entryDx=0;entryDy=0;endSize=8;" edge="1" parent="1" target="114">
                    <mxGeometry width="50" height="50" relative="1" as="geometry">
                        <mxPoint x="130" y="805" as="sourcePoint"/>
                        <mxPoint x="350" y="800" as="targetPoint"/>
                    </mxGeometry>
                </mxCell>
                <mxCell id="186" value="" style="endArrow=classic;html=1;strokeColor=#000000;strokeWidth=5;fontSize=40;fontColor=#FFFFFF;endSize=8;entryX=0;entryY=0.5;entryDx=0;entryDy=0;" edge="1" parent="1" target="146">
                    <mxGeometry width="50" height="50" relative="1" as="geometry">
                        <mxPoint x="130" y="1095" as="sourcePoint"/>
                        <mxPoint x="40" y="860" as="targetPoint"/>
                    </mxGeometry>
                </mxCell>
                <mxCell id="190" value="&lt;font style=&quot;font-size: 60px&quot;&gt;CPU&lt;/font&gt;" style="text;html=1;align=center;verticalAlign=middle;resizable=0;points=[];autosize=1;fontSize=40;fontColor=#000000;fontStyle=0" vertex="1" parent="1">
                    <mxGeometry x="-940" y="330" width="140" height="60" as="geometry"/>
                </mxCell>
                <mxCell id="198" value="&lt;font style=&quot;font-size: 60px&quot;&gt;MEM&lt;/font&gt;" style="text;html=1;align=center;verticalAlign=middle;resizable=0;points=[];autosize=1;fontSize=40;fontColor=#000000;fontStyle=0" vertex="1" parent="1">
                    <mxGeometry x="-960" y="930" width="160" height="60" as="geometry"/>
                </mxCell>
            </root>
        </mxGraphModel>
    </diagram>
</mxfile>